<?xml version="1.0" encoding="UTF-8" standalone="no"?>
<svg
   xmlns:dc="http://purl.org/dc/elements/1.1/"
   xmlns:cc="http://creativecommons.org/ns#"
   xmlns:rdf="http://www.w3.org/1999/02/22-rdf-syntax-ns#"
   xmlns:svg="http://www.w3.org/2000/svg"
   xmlns="http://www.w3.org/2000/svg"
   id="svg17"
   viewBox="0 0 2431 799"
   style="shape-rendering:geometricPrecision; text-rendering:geometricPrecision; image-rendering:optimizeQuality; fill-rule:evenodd; clip-rule:evenodd"
   version="1.1"
   height="799"
   width="2431"
   xml:space="preserve"><metadata
     id="metadata21"><rdf:RDF><cc:Work
         rdf:about=""><dc:format>image/svg+xml</dc:format><dc:type
           rdf:resource="http://purl.org/dc/dcmitype/StillImage" /></cc:Work></rdf:RDF></metadata><defs
     id="defs4"><style
       id="style2"
       type="text/css"><![CDATA[
    .fil1 {fill:#FEFEFE}
    .fil2 {fill:#FEFEFE}
    .fil0 {fill:#61AF5F}
   ]]></style></defs><g
     id="Layer_x0020_1"><metadata
       id="CorelCorpID_0Corel-Layer" /><g
       id="_756570032"><path
         id="path7"
         d="M170 0l2261 0 0 799 -2261 0c-93,0 -170,-77 -170,-171l0 -458c0,-93 77,-170 170,-170z"
         class="fil0" /><path
         id="path9"
         d="M501 134c-134,0 -242,108 -242,242 0,66 35,126 35,126l-42 129 132 -43c0,0 49,30 117,30 134,0 242,-108 242,-242 0,-134 -108,-242 -242,-242zm-189 442l-3 1 0 -1 1 -2 0 -1 1 -2 0 -1 1 -2 1 -2 0 -1 1 -2 0 -2 1 -1 0 -2 1 -1 0 -2 1 -2 0 -1 1 -2 0 -1 1 -2 1 -2 0 -1 1 -2 0 -2 1 -1 0 -2 1 -1 0 -2 1 -2 0 -1 1 -2 1 -2 0 -1 1 -2 0 -1 1 -2 0 -2 1 -1 0 -2 1 -1 0 -2 1 -2 0 -1 1 -2 1 -2 0 -1 1 -2 0 -1 0 0c0,0 0,-1 -1,-2 0,0 0,-1 -1,-2 0,0 -1,-1 -1,-1 0,-1 -1,-1 -1,-2 0,0 -1,-1 -1,-1 0,-1 -1,-2 -1,-2 0,-1 -1,-1 -1,-2 0,0 -1,-1 -1,-1 0,-1 -1,-1 -1,-2 0,0 0,-1 -1,-2 0,0 0,-1 -1,-1 0,-1 0,-1 -1,-2 0,0 0,-1 0,-1 -1,-1 -1,-1 -1,-2 -1,-1 -1,-1 -1,-2 0,0 -1,-1 -1,-1 0,-1 0,-1 -1,-2 0,0 0,-1 -1,-1 0,-1 0,-2 0,-2 -1,-1 -1,-1 -1,-2 0,0 -1,-1 -1,-1 0,-1 0,-1 -1,-2 0,0 0,-1 0,-2 -1,0 -1,-1 -1,-1 0,-1 0,-1 -1,-2 0,0 0,-1 0,-1 -1,-1 -1,-1 -1,-2 0,-1 -1,-1 -1,-2 0,0 0,-1 0,-1 -1,-1 -1,-1 -1,-2 0,0 0,-1 -1,-1 0,-1 0,-2 0,-2 0,-1 -1,-1 -1,-2 0,0 0,-1 0,-1 -1,-1 -1,-1 -1,-2 0,0 0,-1 -1,-2 0,0 0,-1 0,-1 0,-1 -1,-1 -1,-2 0,0 0,-1 0,-1 0,-1 -1,-1 -1,-2 0,-1 0,-1 0,-2 0,0 -1,-1 -1,-1 0,-1 0,-1 0,-2 0,0 0,-1 -1,-1 0,-1 0,-2 0,-2 0,-1 0,-1 -1,-2 0,0 0,-1 0,-1 0,-1 0,-1 0,-2 0,-1 -1,-1 -1,-2 0,0 0,-1 0,-1 0,-1 0,-1 0,-2 -1,0 -1,-1 -1,-1 0,-1 0,-2 0,-2 0,-1 0,-1 -1,-2 0,0 0,-1 0,-1 0,-1 0,-1 0,-2 0,0 0,-1 0,-2 -1,0 -1,-1 -1,-1 0,-1 0,-1 0,-2 0,0 0,-1 0,-1 0,-1 0,-1 0,-2 0,-1 -1,-1 -1,-2 0,0 0,-1 0,-1 0,-1 0,-1 0,-2 0,0 0,-1 0,-1 0,-1 0,-2 0,-2 0,-1 0,-1 0,-2 -1,0 -1,-1 -1,-1 0,-1 0,-1 0,-2 0,0 0,-1 0,-2 0,0 0,-1 0,-1 0,-1 0,-1 0,-2 0,0 0,-1 0,-1 0,-1 0,-1 0,-2 0,-1 0,-1 0,-2 0,0 0,-1 0,-1l0 0c0,-1 0,-1 0,-2 0,0 0,-1 0,-1 0,-1 0,-2 0,-2 0,-1 0,-1 0,-2 0,0 0,-1 0,-1 0,-1 0,-1 0,-2 0,0 0,-1 0,-2 0,0 0,-1 0,-1 0,-1 0,-1 0,-2 0,0 0,-1 1,-1 0,-1 0,-1 0,-2 0,-1 0,-1 0,-2 0,0 0,-1 0,-1 0,-1 0,-1 0,-2 0,0 0,-1 0,-1 0,-1 0,-2 0,-2 1,-1 1,-1 1,-2 0,0 0,-1 0,-1 0,-1 0,-1 0,-2 0,0 0,-1 0,-2 0,0 1,-1 1,-1 0,-1 0,-1 0,-2 0,0 0,-1 0,-1 0,-1 0,-1 1,-2 0,-1 0,-1 0,-2 0,0 0,-1 0,-1 0,-1 0,-1 1,-2 0,0 0,-1 0,-1 0,-1 0,-2 0,-2 0,-1 0,-1 1,-2 0,0 0,-1 0,-1 0,-1 0,-1 0,-2 1,0 1,-1 1,-2 0,0 0,-1 0,-1 0,-1 1,-1 1,-2 0,0 0,-1 0,-1 0,-1 1,-2 1,-2 0,-1 0,-1 0,-2 0,0 1,-1 1,-1 0,-1 0,-1 0,-2 0,0 1,-1 1,-2 0,0 0,-1 0,-1 0,-1 1,-1 1,-2 0,0 0,-1 0,-1 1,-1 1,-1 1,-2 0,-1 0,-1 1,-2 0,0 0,-1 0,-1 0,-1 1,-1 1,-2 0,0 0,-1 1,-1 0,-1 0,-2 0,-2 1,-1 1,-1 1,-2 0,0 0,-1 1,-1 0,-1 0,-1 0,-2 1,0 1,-1 1,-2 0,0 1,-1 1,-1 0,-1 0,-1 1,-2 0,0 0,-1 1,-1 0,-1 0,-1 0,-2 1,-1 1,-1 1,-2 0,0 1,-1 1,-1 0,-1 1,-1 1,-2 0,0 0,-1 1,-1 0,-1 0,-2 1,-2 0,-1 0,-1 1,-2 0,0 0,-1 1,-1 0,-1 0,-1 0,-2 1,0 1,-1 1,-2 1,0 1,-1 1,-1 1,-1 1,-1 1,-2 1,0 1,-1 2,-1 0,-1 0,-1 1,-2 0,-1 0,-1 1,-2 0,0 0,-1 1,-1 0,-1 1,-1 1,-2 0,0 1,-1 1,-1 1,-1 1,-2 1,-2 1,-1 1,-1 2,-2 0,0 0,-1 1,-1 0,-1 1,-1 1,-2 0,0 1,-1 1,-2 1,0 1,-1 2,-1 0,-1 0,-1 1,-2 0,0 1,-1 1,-1 1,-1 1,-1 2,-2 0,-1 1,-1 1,-2 1,0 1,-1 2,-1 0,-1 1,-1 1,-2 1,0 1,-1 2,-1 0,-1 1,-2 1,-2 1,-1 1,-1 2,-2 0,0 1,-1 1,-1 1,-1 1,-1 2,-2 1,0 1,-1 2,-2 0,0 1,-1 1,-1 1,-1 2,-1 2,-2 1,0 1,-1 2,-1 1,-1 1,-1 2,-2 0,-1 1,-1 2,-2 0,0 1,-1 2,-1 0,-1 1,-1 2,-2 0,0 1,-1 2,-1 0,-1 1,-2 2,-2 1,-1 1,-1 2,-2 1,0 1,-1 2,-1 1,-1 2,-1 2,-2 1,-1 2,-1 3,-2 1,0 1,-1 2,-1 1,-1 2,-1 3,-2 1,0 1,-1 2,-1 1,-1 2,-2 3,-2 1,-1 2,-1 3,-2 1,0 2,-1 3,-1 1,-1 2,-1 3,-2 1,0 2,-1 3,-2 1,0 2,-1 3,-1 1,-1 2,-1 3,-2 1,0 3,-1 4,-1 1,-1 2,-1 3,-2 2,-1 3,-1 4,-2 2,0 3,-1 5,-1 1,-1 3,-1 4,-2 2,0 3,-1 5,-1 2,-1 4,-2 5,-2 2,-1 4,-1 6,-2 3,0 5,-1 7,-1 3,-1 5,-1 8,-2 4,-1 7,-1 11,-2 8,-1 17,-1 26,-1 9,0 17,0 26,1 3,1 7,1 10,2 3,1 6,1 8,2 3,0 5,1 7,1 2,1 4,1 6,2 2,0 4,1 6,2 1,0 3,1 4,1 2,1 3,1 5,2 1,0 3,1 4,1 1,1 3,1 4,2 1,1 3,1 4,2 1,0 2,1 3,1 1,1 3,1 4,2 1,0 2,1 3,1 1,1 2,2 3,2 1,1 2,1 3,2 1,0 2,1 3,1 1,1 2,1 3,2 1,0 1,1 2,2 1,0 2,1 3,1 1,1 2,1 2,2 1,0 2,1 3,1 1,1 1,1 2,2 1,1 2,1 2,2 1,0 2,1 3,1 0,1 1,1 2,2 1,0 1,1 2,2 1,0 1,1 2,1 1,1 1,1 2,2 1,0 1,1 2,1 1,1 1,1 2,2 0,1 1,1 2,2 0,0 1,1 1,1 1,1 2,1 2,2 1,0 1,1 2,1 1,1 1,2 2,2 0,1 1,1 1,2 1,0 1,1 2,1 0,1 1,1 2,2 0,0 1,1 1,2 1,0 1,1 2,1 0,1 1,1 1,2 1,0 1,1 1,1 1,1 1,1 2,2 0,1 1,1 1,2 1,0 1,1 2,1 0,1 1,1 1,2 0,0 1,1 1,1 1,1 1,2 2,2 0,1 0,1 1,2 0,0 1,1 1,1 1,1 1,1 1,2 1,0 1,1 1,2 1,0 1,1 2,1 0,1 0,1 1,2 0,0 1,1 1,1 0,1 1,1 1,2 0,1 1,1 1,2 0,0 1,1 1,1 0,1 1,1 1,2 0,0 1,1 1,1 0,1 1,2 1,2 0,1 1,1 1,2 0,0 1,1 1,1 0,1 1,1 1,2 0,0 1,1 1,2 0,0 0,1 1,1 0,1 0,1 1,2 0,0 0,1 0,1 1,1 1,1 1,2 1,1 1,1 1,2 0,0 1,1 1,1 0,1 0,1 1,2 0,0 0,1 0,1 1,1 1,2 1,2 0,1 1,1 1,2 0,0 0,1 1,1 0,1 0,1 0,2 1,0 1,1 1,2 0,0 0,1 1,1 0,1 0,1 0,2 1,0 1,1 1,1 0,1 0,1 1,2 0,1 0,1 0,2 0,0 1,1 1,1 0,1 0,1 0,2 0,0 1,1 1,1 0,1 0,2 0,2 1,1 1,1 1,2 0,0 0,1 0,1 1,1 1,1 1,2 0,0 0,1 0,2 1,0 1,1 1,1 0,1 0,1 0,2 0,0 1,1 1,1 0,1 0,2 0,2 0,1 0,1 1,2 0,0 0,1 0,1 0,1 0,1 0,2 1,0 1,1 1,2 0,0 0,1 0,1 0,1 0,1 0,2 1,0 1,1 1,1 0,1 0,1 0,2 0,1 0,1 0,2 0,0 1,1 1,1 0,1 0,1 0,2 0,0 0,1 0,1 0,1 0,2 0,2 1,1 1,1 1,2 0,0 0,1 0,1 0,1 0,1 0,2 0,0 0,1 0,2 0,0 0,1 0,1 1,1 1,1 1,2 0,0 0,1 0,1 0,1 0,1 0,2 0,1 0,1 0,2 0,0 0,1 0,1 0,1 0,1 0,2 0,0 0,1 0,1 0,1 0,2 0,2 1,1 1,1 1,2 0,0 0,1 0,1 0,1 0,1 0,2 0,0 0,1 0,2 0,0 0,1 0,1 0,0 0,1 0,1l0 1 0 0c0,1 0,1 0,1 0,1 0,1 0,2 0,1 0,1 0,2 0,0 0,1 0,1 0,1 0,1 0,2 0,0 0,1 -1,1 0,1 0,2 0,2 0,1 0,1 0,2 0,0 0,1 0,1 0,1 0,1 0,2 0,0 0,1 0,2 0,0 0,1 0,1 0,1 0,1 0,2 0,0 0,1 -1,1 0,1 0,1 0,2 0,1 0,1 0,2 0,0 0,1 0,1 0,1 0,1 0,2 0,0 0,1 -1,1 0,1 0,2 0,2 0,1 0,1 0,2 0,0 0,1 0,1 0,1 -1,1 -1,2 0,0 0,1 0,2 0,0 0,1 0,1 0,1 0,1 -1,2 0,0 0,1 0,1 0,1 0,1 0,2 0,1 0,1 -1,2 0,0 0,1 0,1 0,1 0,1 0,2 -1,0 -1,1 -1,2 0,0 0,1 0,1 0,1 -1,1 -1,2 0,0 0,1 0,1 0,1 0,1 -1,2 0,1 0,1 0,2 0,0 0,1 -1,1 0,1 0,1 0,2 0,0 0,1 -1,1 0,1 0,2 0,2 0,1 -1,1 -1,2 0,0 0,1 0,1 0,1 -1,1 -1,2 0,0 0,1 0,2 -1,0 -1,1 -1,1 0,1 0,1 -1,2 0,0 0,1 0,1 -1,1 -1,1 -1,2 0,1 0,1 -1,2 0,0 0,1 0,1 -1,1 -1,1 -1,2 0,0 -1,1 -1,1 0,1 0,2 -1,2 0,1 0,1 0,2 -1,0 -1,1 -1,1 0,1 -1,1 -1,2 0,0 0,1 -1,2 0,0 0,1 -1,1 0,1 0,1 0,2 -1,0 -1,1 -1,1 -1,1 -1,1 -1,2 0,1 -1,1 -1,2 0,0 -1,1 -1,1 0,1 -1,1 -1,2 0,0 -1,1 -1,1 0,1 -1,2 -1,2 0,1 -1,1 -1,2 0,0 -1,1 -1,1 0,1 -1,1 -1,2 0,0 -1,1 -1,2 0,0 -1,1 -1,1 0,1 -1,1 -1,2 -1,0 -1,1 -1,1 -1,1 -1,1 -2,2 0,1 0,1 -1,2 0,0 0,1 -1,1 0,1 -1,1 -1,2 -1,0 -1,1 -1,1 -1,1 -1,2 -2,2 0,1 -1,1 -1,2 0,0 -1,1 -1,1 -1,1 -1,1 -2,2 0,0 -1,1 -1,2 -1,0 -1,1 -2,1 0,1 0,1 -1,2 0,0 -1,1 -1,1 -1,1 -1,1 -2,2 0,1 -1,1 -2,2 0,0 -1,1 -1,1 -1,1 -1,1 -2,2 0,0 -1,1 -1,1 -1,1 -1,2 -2,2 -1,1 -1,1 -2,2 0,0 -1,1 -2,1 0,1 -1,1 -1,2 -1,0 -2,1 -2,2 -1,0 -1,1 -2,1 -1,1 -1,1 -2,2 -1,0 -1,1 -2,1 -1,1 -1,2 -2,2 -1,1 -1,1 -2,2 -1,0 -2,1 -2,1 -1,1 -2,1 -3,2 0,0 -1,1 -2,2 -1,0 -1,1 -2,1 -1,1 -2,1 -3,2 0,0 -1,1 -2,1 -1,1 -2,1 -3,2 -1,1 -1,1 -2,2 -1,0 -2,1 -3,1 -1,1 -2,1 -3,2 -1,0 -2,1 -3,1 -1,1 -2,2 -3,2 -1,1 -2,1 -3,2 -1,0 -3,1 -4,1 -1,1 -2,1 -3,2 -1,0 -3,1 -4,2 -1,0 -3,1 -4,1 -1,1 -3,1 -4,2 -2,0 -3,1 -5,1 -1,1 -3,1 -4,2 -2,1 -4,1 -6,2 -2,0 -4,1 -6,1 -2,1 -4,1 -7,2 -2,0 -5,1 -8,1 -3,1 -7,2 -10,2 -9,1 -17,2 -26,2 -9,0 -17,-1 -24,-2 -4,0 -7,-1 -11,-2 -2,0 -5,-1 -8,-1 -2,-1 -4,-1 -6,-2 -2,0 -4,-1 -6,-1 -2,-1 -4,-1 -6,-2 -1,-1 -3,-1 -5,-2 -1,0 -3,-1 -4,-1 -2,-1 -3,-1 -5,-2 -1,0 -2,-1 -4,-1 -1,-1 -2,-2 -4,-2 -1,-1 -2,-1 -3,-2 -2,0 -3,-1 -4,-1 -1,-1 -2,-1 -3,-2 -1,0 -3,-1 -4,-2 -1,0 -2,-1 -3,-1 -1,-1 -2,-1 -3,-2 -1,0 -2,-1 -3,-1 -1,-1 -2,-2 -3,-2 -1,-1 -1,-1 -2,-2 -1,0 -2,-1 -3,-1 0,0 0,-1 0,-1l-1 1 -5 1 -5 2 -5 2 -5 1 -5 2 -5 1 -5 2 -5 2 -5 1 -5 2 -5 2 -5 1 -5 2 -4 1 -5 2z"
         class="fil1" /><path
         id="path11"
         d="M1122 232l-21 128 -39 0 -16 -97 -17 97 -38 0 -21 -128 30 0 13 105 18 -105 31 0 17 105 15 -105 28 0zm68 27c9,0 15,3 20,8 5,5 7,12 7,22l0 71 -29 0 0 -66c0,-5 -1,-9 -2,-11 -2,-2 -4,-3 -7,-3 -6,0 -11,5 -17,13l0 67 -29 0 0 -137 29 -2 0 52c4,-5 8,-8 13,-10 5,-3 10,-4 15,-4zm124 73c0,3 1,6 2,8 1,1 2,3 5,3l-6 19c-6,0 -11,-1 -15,-4 -4,-2 -7,-5 -9,-10 -6,10 -16,15 -29,15 -10,0 -18,-3 -23,-8 -6,-6 -9,-13 -9,-23 0,-10 4,-18 12,-24 8,-6 19,-8 34,-8l10 0 0 -5c0,-5 -2,-9 -4,-12 -2,-2 -7,-3 -13,-3 -3,0 -7,1 -11,2 -5,1 -10,2 -14,3l-7 -19c6,-2 12,-4 19,-5 6,-1 12,-2 18,-2 14,0 24,3 30,9 7,6 10,14 10,26l0 38zm-44 10c7,0 12,-3 16,-9l0 -17 -7 0c-7,0 -12,1 -15,3 -4,2 -5,6 -5,11 0,4 1,7 3,9 2,2 5,3 8,3zm126 13c-4,3 -8,5 -12,6 -5,1 -10,2 -15,2 -21,0 -31,-12 -31,-35l0 -46 -14 0 0 -20 14 0 0 -21 29 -3 0 24 22 0 -3 20 -19 0 0 45c0,5 0,8 2,10 1,2 4,3 7,3 3,0 7,-1 10,-3l10 18zm42 -96c7,0 13,1 19,3 6,2 12,5 16,9l-10 16c-8,-5 -16,-7 -24,-7 -4,0 -7,1 -9,2 -2,1 -3,3 -3,5 0,2 0,4 1,5 1,1 3,2 6,3 3,2 7,3 13,5 10,3 18,7 23,11 5,5 7,11 7,20 0,6 -2,12 -6,17 -3,5 -9,9 -15,11 -7,3 -14,4 -22,4 -9,0 -16,-1 -23,-4 -7,-2 -13,-6 -18,-11l14 -15c8,6 17,9 26,9 4,0 8,-1 10,-2 3,-2 4,-4 4,-7 0,-2 0,-4 -1,-5 -1,-2 -3,-3 -6,-4 -3,-1 -7,-3 -14,-5 -9,-2 -16,-6 -21,-11 -5,-5 -7,-12 -7,-19 0,-6 1,-11 5,-15 3,-5 7,-8 13,-11 7,-3 14,-4 22,-4zm127 73c0,3 1,6 2,8 1,1 2,3 5,3l-6 19c-6,0 -11,-1 -15,-4 -4,-2 -7,-5 -9,-10 -6,10 -16,15 -29,15 -10,0 -18,-3 -23,-8 -6,-6 -9,-13 -9,-23 0,-10 4,-18 12,-24 8,-6 19,-8 34,-8l10 0 0 -5c0,-5 -2,-9 -4,-12 -3,-2 -7,-3 -13,-3 -3,0 -7,1 -12,2 -4,1 -9,2 -13,3l-7 -19c6,-2 12,-4 19,-5 6,-1 12,-2 18,-2 14,0 24,3 30,9 7,6 10,14 10,26l0 38zm-44 10c7,0 12,-3 16,-9l0 -17 -8 0c-6,0 -11,1 -14,3 -4,2 -5,6 -5,11 0,4 1,7 3,9 2,2 5,3 8,3zm120 -83c12,0 21,5 27,14 6,9 9,21 9,38 0,10 -1,19 -4,27 -4,8 -8,14 -14,18 -6,5 -13,7 -21,7 -9,0 -17,-3 -23,-10l0 45 -29 3 0 -139 25 0 2 11c4,-5 8,-8 13,-10 5,-3 10,-4 15,-4zm-11 83c11,0 17,-11 17,-31 0,-11 -1,-19 -4,-24 -2,-4 -6,-7 -11,-7 -4,0 -7,1 -10,3 -3,2 -5,5 -7,9l0 41c4,6 9,9 15,9zm118 -83c12,0 21,5 27,14 6,9 9,21 9,38 0,10 -1,19 -4,27 -3,8 -8,14 -14,18 -6,5 -13,7 -20,7 -10,0 -18,-3 -24,-10l0 45 -29 3 0 -139 25 0 2 11c4,-5 8,-8 13,-10 5,-3 10,-4 15,-4zm-11 83c11,0 17,-11 17,-31 0,-11 -1,-19 -4,-24 -2,-4 -6,-7 -11,-7 -3,0 -7,1 -9,3 -3,2 -6,5 -8,9l0 41c4,6 9,9 15,9zm-802 108c8,0 15,1 21,3 6,3 12,6 18,11l-15 17c-3,-3 -7,-5 -11,-7 -4,-1 -7,-2 -12,-2 -8,0 -15,4 -20,11 -5,7 -7,18 -7,33 0,15 2,26 7,33 5,8 12,11 21,11 4,0 9,-1 12,-2 4,-2 8,-5 13,-8l13 17c-5,5 -10,9 -17,12 -7,3 -14,5 -23,5 -11,0 -22,-3 -30,-8 -9,-5 -16,-13 -21,-23 -5,-10 -7,-22 -7,-37 0,-13 3,-25 7,-35 5,-10 12,-18 21,-23 9,-5 19,-8 30,-8zm75 134c-9,0 -15,-3 -20,-8 -5,-5 -7,-11 -7,-20l0 -112 29 -3 0 113c0,5 1,7 5,7 1,0 3,-1 5,-1l5 20c-5,2 -11,4 -17,4zm55 -101l0 97 -29 0 0 -97 29 0zm-15 -52c5,0 9,2 12,5 4,3 5,7 5,12 0,5 -1,9 -5,12 -3,3 -7,4 -12,4 -5,0 -9,-1 -12,-4 -3,-3 -5,-7 -5,-12 0,-5 2,-9 5,-12 3,-3 7,-5 12,-5zm77 49c7,0 13,1 18,3 6,2 11,5 16,9l-13 17c-6,-5 -12,-7 -18,-7 -7,0 -12,2 -15,7 -3,5 -5,13 -5,23 0,11 2,18 5,22 3,4 8,7 14,7 4,0 7,-1 9,-2 3,-1 6,-3 10,-5l13 18c-10,8 -21,12 -33,12 -10,0 -19,-3 -26,-7 -7,-4 -13,-10 -17,-18 -4,-7 -6,-16 -6,-27 0,-10 2,-19 6,-27 4,-8 10,-14 17,-19 7,-4 16,-6 25,-6zm72 -39l0 139 -29 0 0 -136 29 -3zm61 42l-30 43 32 54 -33 0 -29 -53 30 -44 30 0zm114 93c-3,2 -8,4 -12,6 -5,1 -10,2 -14,2 -22,-1 -32,-12 -32,-36l0 -45 -14 0 0 -20 14 0 0 -21 29 -4 0 25 22 0 -3 20 -19 0 0 45c0,4 0,8 2,10 1,2 4,3 7,3 3,0 7,-1 10,-4l10 19zm46 -96c15,0 27,4 35,13 9,10 13,22 13,39 0,10 -2,19 -6,27 -4,8 -9,14 -16,18 -7,4 -16,7 -26,7 -15,0 -26,-5 -35,-14 -8,-9 -13,-22 -13,-38 0,-11 2,-20 6,-28 4,-8 10,-14 17,-18 7,-4 15,-6 25,-6zm0 21c-6,0 -10,2 -13,7 -3,5 -4,13 -4,24 0,10 1,18 4,23 3,5 7,7 13,7 6,0 11,-2 13,-7 3,-5 5,-13 5,-23 0,-11 -2,-19 -4,-24 -3,-5 -8,-7 -14,-7zm159 -51c8,0 15,1 21,3 6,3 12,6 18,11l-15 17c-3,-3 -7,-5 -11,-7 -4,-1 -7,-2 -12,-2 -8,0 -15,4 -20,11 -5,7 -7,18 -7,33 0,15 2,26 7,33 5,8 12,11 21,11 4,0 9,-1 12,-2 4,-2 8,-5 13,-8l13 17c-5,5 -10,9 -17,12 -7,3 -15,5 -23,5 -12,0 -22,-3 -30,-8 -9,-5 -16,-13 -21,-23 -5,-10 -7,-22 -7,-37 0,-13 2,-25 7,-35 5,-10 12,-18 21,-23 9,-5 19,-8 30,-8zm106 30c8,0 15,2 20,7 4,6 7,13 7,22l0 71 -29 0 0 -66c0,-5 -1,-8 -3,-10 -1,-2 -4,-3 -6,-3 -6,0 -12,4 -17,13l0 66 -29 0 0 -136 29 -3 0 52c4,-4 8,-8 13,-10 4,-2 9,-3 15,-3zm124 72c0,4 0,6 1,8 1,2 3,3 5,4l-6 19c-6,-1 -11,-2 -14,-4 -4,-2 -7,-6 -9,-10 -7,10 -16,15 -30,15 -9,0 -17,-3 -23,-9 -6,-6 -9,-13 -9,-22 0,-11 4,-19 12,-24 8,-6 19,-9 34,-9l10 0 0 -4c0,-6 -1,-10 -3,-12 -3,-2 -7,-3 -13,-3 -4,0 -7,0 -12,1 -4,1 -9,2 -14,4l-7 -19c7,-2 13,-4 19,-5 7,-2 13,-2 18,-2 14,0 24,3 31,8 6,6 10,15 10,26l0 38zm-44 11c6,0 12,-3 15,-10l0 -17 -7 0c-7,0 -12,1 -15,4 -3,2 -5,6 -5,10 0,4 1,7 3,10 2,2 5,3 9,3zm125 13c-3,2 -7,4 -12,6 -5,1 -9,2 -14,2 -21,-1 -32,-12 -32,-36l0 -45 -14 0 0 -20 14 0 0 -21 29 -4 0 25 22 0 -3 20 -19 0 0 45c0,4 1,8 2,10 2,2 4,3 7,3 4,0 7,-1 11,-4l9 19z"
         class="fil2" /><path
         id="path13"
         d="M401 275c0,0 6,-5 10,-5 3,0 19,0 19,0 0,0 5,1 7,7 3,5 19,43 20,46 1,3 4,10 -1,16 -5,7 -15,19 -15,19 0,0 -4,3 -1,9 4,6 16,26 33,41 16,15 37,25 47,29 10,3 12,-1 16,-6 4,-5 16,-20 16,-20 0,0 4,-7 12,-3 8,4 48,23 48,23 0,0 5,1 5,6 0,6 4,22 -11,37 -14,16 -45,23 -59,19 -15,-4 -62,-17 -94,-46 -31,-29 -56,-59 -67,-82 -10,-23 -9,-36 -9,-42 1,-7 4,-36 24,-48z"
         class="fil1" /></g></g></svg>